<svg width="22" height="22" viewBox="0 0 22 22" fill="none" xmlns="http://www.w3.org/2000/svg">
<g clip-path="url(#clip0_35_181)">
<path d="M19.5556 3.6665H2.44445C2.1203 3.6665 1.80942 3.79527 1.58021 4.02448C1.351 4.2537 1.22223 4.56457 1.22223 4.88873V17.1109C1.22223 17.4351 1.351 17.746 1.58021 17.9752C1.80942 18.2044 2.1203 18.3332 2.44445 18.3332H19.5556C19.8797 18.3332 20.1906 18.2044 20.4198 17.9752C20.649 17.746 20.7778 17.4351 20.7778 17.1109V4.88873C20.7778 4.56457 20.649 4.2537 20.4198 4.02448C20.1906 3.79527 19.8797 3.6665 19.5556 3.6665ZM18.6145 17.1109H3.4589L7.73667 12.6865L6.85667 11.8371L2.44445 16.4021V5.81762L10.0406 13.3771C10.2696 13.6047 10.5793 13.7325 10.9022 13.7325C11.2251 13.7325 11.5349 13.6047 11.7639 13.3771L19.5556 5.62817V16.3226L15.0578 11.8248L14.1961 12.6865L18.6145 17.1109ZM3.24501 4.88873H18.5656L10.9022 12.5093L3.24501 4.88873Z" fill="#47B2E4"/>
</g>
<defs>
<clipPath id="clip0_35_181">
<rect width="22" height="22" fill="white"/>
</clipPath>
</defs>
</svg>
