<svg width="22" height="22" viewBox="0 0 22 22" fill="none" xmlns="http://www.w3.org/2000/svg">
<path d="M18.2188 9.625C18.2188 14.7812 11 19.5938 11 19.5938C11 19.5938 3.78125 14.7812 3.78125 9.625C3.78125 7.71047 4.54179 5.87435 5.89557 4.52057C7.24935 3.16679 9.08547 2.40625 11 2.40625C12.9145 2.40625 14.7506 3.16679 16.1044 4.52057C17.4582 5.87435 18.2188 7.71047 18.2188 9.625V9.625Z" stroke="#47B2E4" stroke-width="1.5" stroke-linecap="round" stroke-linejoin="round"/>
<path d="M11 11.3438C11.9492 11.3438 12.7188 10.5742 12.7188 9.625C12.7188 8.67576 11.9492 7.90625 11 7.90625C10.0508 7.90625 9.28125 8.67576 9.28125 9.625C9.28125 10.5742 10.0508 11.3438 11 11.3438Z" fill="#47B2E4" stroke="#47B2E4" stroke-width="1.5" stroke-linecap="round" stroke-linejoin="round"/>
</svg>
