<svg width="22" height="22" viewBox="0 0 22 22" fill="none" xmlns="http://www.w3.org/2000/svg">
<g clip-path="url(#clip0_35_177)">
<path d="M15.125 1.375C15.4897 1.375 15.8394 1.51987 16.0973 1.77773C16.3551 2.03559 16.5 2.38533 16.5 2.75V19.25C16.5 19.6147 16.3551 19.9644 16.0973 20.2223C15.8394 20.4801 15.4897 20.625 15.125 20.625H6.875C6.51033 20.625 6.16059 20.4801 5.90273 20.2223C5.64487 19.9644 5.5 19.6147 5.5 19.25V2.75C5.5 2.38533 5.64487 2.03559 5.90273 1.77773C6.16059 1.51987 6.51033 1.375 6.875 1.375H15.125ZM6.875 0C6.14565 0 5.44618 0.289731 4.93046 0.805456C4.41473 1.32118 4.125 2.02065 4.125 2.75V19.25C4.125 19.9793 4.41473 20.6788 4.93046 21.1945C5.44618 21.7103 6.14565 22 6.875 22H15.125C15.8543 22 16.5538 21.7103 17.0695 21.1945C17.5853 20.6788 17.875 19.9793 17.875 19.25V2.75C17.875 2.02065 17.5853 1.32118 17.0695 0.805456C16.5538 0.289731 15.8543 0 15.125 0L6.875 0Z" fill="#47B2E4"/>
<path d="M11 19.25C11.3647 19.25 11.7144 19.1051 11.9723 18.8473C12.2301 18.5894 12.375 18.2397 12.375 17.875C12.375 17.5103 12.2301 17.1606 11.9723 16.9027C11.7144 16.6449 11.3647 16.5 11 16.5C10.6353 16.5 10.2856 16.6449 10.0277 16.9027C9.76987 17.1606 9.625 17.5103 9.625 17.875C9.625 18.2397 9.76987 18.5894 10.0277 18.8473C10.2856 19.1051 10.6353 19.25 11 19.25Z" fill="#47B2E4"/>
</g>
<defs>
<clipPath id="clip0_35_177">
<rect width="22" height="22" fill="white"/>
</clipPath>
</defs>
</svg>
